<?xml version="1.0" encoding="utf-8"?>
<!-- Generator: Adobe Illustrator 16.0.0, SVG Export Plug-In . SVG Version: 6.00 Build 0)  -->
<!DOCTYPE svg PUBLIC "-//W3C//DTD SVG 1.1//EN" "http://www.w3.org/Graphics/SVG/1.1/DTD/svg11.dtd" [
	<!ENTITY ns_extend "http://ns.adobe.com/Extensibility/1.0/">
	<!ENTITY ns_ai "http://ns.adobe.com/AdobeIllustrator/10.0/">
	<!ENTITY ns_graphs "http://ns.adobe.com/Graphs/1.0/">
	<!ENTITY ns_vars "http://ns.adobe.com/Variables/1.0/">
	<!ENTITY ns_imrep "http://ns.adobe.com/ImageReplacement/1.0/">
	<!ENTITY ns_sfw "http://ns.adobe.com/SaveForWeb/1.0/">
	<!ENTITY ns_custom "http://ns.adobe.com/GenericCustomNamespace/1.0/">
	<!ENTITY ns_adobe_xpath "http://ns.adobe.com/XPath/1.0/">
]>
<svg version="1.1" id="Layer_1" xmlns:x="&ns_extend;" xmlns:i="&ns_ai;" xmlns:graph="&ns_graphs;"
	 xmlns="http://www.w3.org/2000/svg" xmlns:xlink="http://www.w3.org/1999/xlink" x="0px" y="0px" width="1183.991px"
	 height="234.005px" viewBox="0 0 1183.991 234.005" enable-background="new 0 0 1183.991 234.005" xml:space="preserve">
<metadata>
	<sfw  xmlns="&ns_sfw;">
		<slices></slices>
		<sliceSourceBounds  width="1183.991" height="234.004" y="-855.686" x="329.2" bottomLeftOrigin="true"></sliceSourceBounds>
	</sfw>
</metadata>
<g>
	<g>
		<g>
			<path fill="#FFC331" d="M300.236,178.605c0,5.227,1.839,9.678,5.519,13.357c3.679,3.682,8.133,5.52,13.359,5.52
				c5.226,0,9.679-1.838,13.358-5.52c3.68-3.68,5.52-8.131,5.52-13.357v-43.916c0-2.666,0.959-4.959,2.879-6.877
				c1.921-1.922,4.213-2.883,6.88-2.883h0.161c2.718,0,4.984,0.961,6.798,2.883c1.92,1.918,2.88,4.211,2.88,6.877v43.916
				c0,5.227,1.84,9.678,5.521,13.357c3.679,3.682,8.13,5.52,13.357,5.52c5.28,0,9.759-1.838,13.438-5.52
				c3.681-3.68,5.521-8.131,5.521-13.357v-43.916c0-2.666,0.958-4.959,2.879-6.877c1.811-1.922,4.078-2.883,6.799-2.883h0.159
				c2.667,0,4.96,0.961,6.88,2.883c1.867,1.918,2.8,4.211,2.8,6.877v43.916c0,10.613-3.76,19.676-11.278,27.197
				c-7.52,7.518-16.586,11.279-27.197,11.279c-12.693,0-22.237-4.213-28.639-12.639c-6.451,8.426-16.025,12.639-28.716,12.639
				c-10.612,0-19.679-3.762-27.197-11.279c-7.52-7.521-11.279-16.584-11.279-27.197v-43.916c0-2.666,0.959-4.959,2.88-6.877
				c1.919-1.922,4.186-2.883,6.798-2.883h0.241c2.611,0,4.879,0.961,6.801,2.883c1.918,1.918,2.879,4.211,2.879,6.877V178.605z"/>
			<path fill="#FFC331" d="M516.454,151.809c0.642,1.332,0.961,2.691,0.961,4.078c0,1.121-0.213,2.242-0.64,3.359
				c-0.908,2.508-2.613,4.32-5.12,5.441c-7.467,3.359-17.277,7.785-29.438,13.277c-15.092,6.826-23.944,10.854-26.557,12.08
				c4.052,5.119,10.371,7.678,18.958,7.678c5.705,0,10.879-1.678,15.518-5.039c4.532-3.307,7.706-7.572,9.52-12.799
				c1.548-4.371,4.641-6.561,9.28-6.561c3.305,0,5.946,1.391,7.919,4.16c1.226,1.709,1.84,3.494,1.84,5.361
				c0,1.119-0.214,2.266-0.64,3.438c-3.146,9.121-8.668,16.479-16.559,22.08c-7.999,5.813-16.959,8.719-26.878,8.719
				c-12.692,0-23.545-4.506-32.556-13.518c-9.013-9.014-13.52-19.865-13.52-32.559c0-12.691,4.507-23.543,13.52-32.559
				c9.011-9.01,19.863-13.518,32.556-13.518c9.171,0,17.545,2.508,25.117,7.52C507.255,137.357,512.828,143.807,516.454,151.809z
				 M474.619,144.686c-7.36,0-13.626,2.59-18.799,7.762c-5.119,5.174-7.68,11.441-7.68,18.799v0.559l44.717-20.076
				C488.91,147.035,482.831,144.686,474.619,144.686z"/>
			<path fill="#FFC331" d="M543.013,92.133c2.611,0,4.877,0.936,6.799,2.801c1.92,1.918,2.881,4.213,2.881,6.879v31.117
				c6.024-5.332,14.851-8,26.476-8c12.692,0,23.545,4.508,32.557,13.518c9.013,9.016,13.52,19.867,13.52,32.559
				c0,12.693-4.507,23.545-13.52,32.559c-9.012,9.012-19.864,13.518-32.557,13.518s-23.517-4.479-32.476-13.439
				c-9.014-8.904-13.547-19.705-13.6-32.396v-69.434c0-2.666,0.96-4.961,2.88-6.879c1.92-1.865,4.186-2.801,6.799-2.801H543.013z
				 M579.168,144.686c-7.358,0-13.626,2.59-18.799,7.762c-5.118,5.174-7.677,11.441-7.677,18.799c0,7.307,2.559,13.545,7.677,18.717
				c5.173,5.174,11.44,7.76,18.799,7.76c7.307,0,13.545-2.586,18.719-7.76c5.171-5.172,7.759-11.41,7.759-18.717
				c0-7.357-2.588-13.625-7.759-18.799C592.713,147.275,586.475,144.686,579.168,144.686z"/>
			<g>
				<g>
					<path fill="#366994" d="M663.64,144.529c-2.348,0-4.318,0.799-5.92,2.398c-1.6,1.654-2.398,3.627-2.398,5.918
						c0,3.201,1.545,5.602,4.639,7.201c1.066,0.586,5.52,1.92,13.359,4c6.346,1.814,11.064,4.188,14.158,7.117
						c4.426,4.215,6.639,10.215,6.639,18c0,7.68-2.719,14.266-8.158,19.758c-5.494,5.441-12.08,8.16-19.758,8.16h-20.879
						c-2.613,0-4.878-0.961-6.798-2.881c-1.921-1.813-2.881-4.08-2.881-6.799v-0.162c0-2.664,0.96-4.957,2.881-6.877
						c1.92-1.92,4.185-2.881,6.798-2.881h21.68c2.344,0,4.318-0.799,5.916-2.398c1.602-1.602,2.4-3.572,2.4-5.92
						c0-2.932-1.52-5.146-4.559-6.639c-0.799-0.373-5.279-1.705-13.438-4c-6.348-1.865-11.068-4.322-14.16-7.361
						c-4.426-4.318-6.639-10.424-6.639-18.318c0-7.678,2.721-14.236,8.161-19.676c5.49-5.492,12.078-8.24,19.758-8.24h14.717
						c2.666,0,4.961,0.961,6.881,2.883c1.92,1.918,2.879,4.211,2.879,6.877v0.16c0,2.719-0.959,4.988-2.879,6.801
						c-1.92,1.918-4.215,2.879-6.881,2.879H663.64z"/>
				</g>
			</g>
			<g>
				<g>
					<path fill="#366994" d="M750.593,124.93c12.689,0,23.543,4.508,32.557,13.518c9.012,9.016,13.518,19.867,13.518,32.559
						c0,12.693-4.506,23.545-13.518,32.559c-9.014,9.012-19.867,13.518-32.557,13.518c-12.693,0-23.545-4.506-32.557-13.518
						c-9.014-9.014-13.52-19.865-13.52-32.559c0-12.691,4.506-23.543,13.52-32.559C727.048,129.438,737.899,124.93,750.593,124.93z
						 M750.593,144.686c-7.361,0-13.627,2.59-18.799,7.762c-5.121,5.174-7.68,11.441-7.68,18.799c0,7.307,2.559,13.545,7.68,18.717
						c5.172,5.174,11.438,7.76,18.799,7.76c7.305,0,13.545-2.586,18.719-7.76c5.172-5.172,7.758-11.41,7.758-18.717
						c0-7.357-2.586-13.625-7.758-18.799C764.138,147.275,757.897,144.686,750.593,144.686z"/>
				</g>
			</g>
			<g>
				<g>
					<path fill="#366994" d="M867.86,127.09c4.533,1.439,6.801,4.533,6.801,9.279v0.402c0,3.25-1.309,5.836-3.92,7.758
						c-1.813,1.279-3.682,1.92-5.6,1.92c-1.014,0-2.053-0.162-3.119-0.482c-2.613-0.852-5.307-1.281-8.08-1.281
						c-7.359,0-13.627,2.59-18.799,7.762c-5.119,5.174-7.68,11.441-7.68,18.799c0,7.307,2.561,13.545,7.68,18.717
						c5.172,5.174,11.439,7.76,18.799,7.76c2.773,0,5.467-0.426,8.08-1.281c1.012-0.318,2.025-0.479,3.039-0.479
						c1.971,0,3.867,0.641,5.68,1.922c2.611,1.918,3.92,4.531,3.92,7.838c0,4.693-2.268,7.787-6.801,9.279
						c-4.479,1.387-9.117,2.08-13.918,2.08c-12.691,0-23.545-4.506-32.557-13.518c-9.014-9.014-13.52-19.865-13.52-32.559
						c0-12.691,4.506-23.543,13.52-32.559c9.012-9.01,19.865-13.518,32.557-13.518C858.743,124.93,863.382,125.652,867.86,127.09z"
						/>
				</g>
			</g>
			<g>
				<g>
					<path fill="#366994" d="M898.179,92.133c2.609,0,4.877,0.936,6.799,2.801c1.92,1.918,2.879,4.213,2.879,6.879v55.436h3.039
						c6.826,0,12.771-2.268,17.84-6.803c4.959-4.531,7.783-10.129,8.479-16.795c0.32-2.508,1.387-4.563,3.201-6.16
						c1.811-1.705,3.971-2.561,6.479-2.561h0.238c2.828,0,5.201,1.068,7.119,3.199c1.707,1.867,2.561,4.027,2.561,6.48
						c0,0.32-0.027,0.668-0.078,1.039c-1.281,13.387-6.4,23.412-15.359,30.076c4.689,2.881,9.012,7.762,12.959,14.641
						c4.105,7.094,6.16,14.746,6.16,22.955v4.082c0,2.719-0.961,4.986-2.881,6.799c-1.922,1.92-4.188,2.881-6.801,2.881h-0.24
						c-2.613,0-4.879-0.961-6.799-2.881c-1.92-1.813-2.879-4.08-2.879-6.799v-4.082c-0.055-7.248-2.641-13.463-7.76-18.637
						c-5.174-5.121-11.414-7.678-18.719-7.678h-6.559v30.396c0,2.719-0.959,4.986-2.879,6.799c-1.922,1.92-4.189,2.881-6.799,2.881
						h-0.242c-2.613,0-4.879-0.961-6.799-2.881c-1.92-1.813-2.879-4.08-2.879-6.799v-105.59c0-2.666,0.959-4.961,2.879-6.879
						c1.92-1.865,4.186-2.801,6.799-2.801H898.179z"/>
				</g>
			</g>
			<g>
				<g>
					<path fill="#366994" d="M1059.603,151.809c0.641,1.332,0.961,2.691,0.961,4.078c0,1.121-0.215,2.242-0.641,3.359
						c-0.908,2.508-2.613,4.32-5.119,5.441c-7.467,3.359-17.279,7.785-29.438,13.277c-15.092,6.826-23.945,10.854-26.559,12.08
						c4.051,5.119,10.371,7.678,18.959,7.678c5.705,0,10.879-1.678,15.52-5.039c4.531-3.307,7.705-7.572,9.518-12.799
						c1.547-4.371,4.641-6.561,9.279-6.561c3.307,0,5.945,1.391,7.92,4.16c1.227,1.709,1.838,3.494,1.838,5.361
						c0,1.119-0.213,2.266-0.639,3.438c-3.146,9.121-8.666,16.479-16.559,22.08c-7.998,5.813-16.959,8.719-26.877,8.719
						c-12.691,0-23.545-4.506-32.557-13.518c-9.012-9.014-13.52-19.865-13.52-32.559c0-12.691,4.508-23.543,13.52-32.559
						c9.012-9.01,19.865-13.518,32.557-13.518c9.17,0,17.545,2.508,25.117,7.52C1050.403,137.357,1055.976,143.807,1059.603,151.809
						z M1017.767,144.686c-7.359,0-13.625,2.59-18.799,7.762c-5.119,5.174-7.678,11.441-7.678,18.799v0.559l44.713-20.076
						C1032.058,147.035,1025.978,144.686,1017.767,144.686z"/>
				</g>
			</g>
			<g>
				<g>
					<path fill="#366994" d="M1086.159,92.133c2.611,0,4.879,0.936,6.799,2.801c1.92,1.918,2.879,4.213,2.879,6.879v23.117h12
						c2.613,0,4.879,0.961,6.801,2.883c1.92,1.918,2.877,4.211,2.877,6.877v0.16c0,2.719-0.957,4.988-2.877,6.801
						c-1.922,1.918-4.188,2.879-6.801,2.879h-12v47.434c0,1.547,0.533,2.855,1.602,3.92c1.064,1.068,2.398,1.6,3.998,1.6h6.4
						c2.613,0,4.879,0.961,6.801,2.881c1.92,1.92,2.877,4.213,2.877,6.877v0.162c0,2.719-0.957,4.986-2.877,6.799
						c-1.922,1.92-4.188,2.881-6.801,2.881h-6.4c-6.932,0-12.877-2.453-17.838-7.359c-4.908-4.959-7.357-10.881-7.357-17.76v-90.15
						c0-2.666,0.959-4.961,2.879-6.879c1.92-1.865,4.186-2.801,6.799-2.801H1086.159z"/>
				</g>
			</g>
			<g>
				<g>
					<path fill="#366994" d="M1153.515,144.529c-2.348,0-4.318,0.799-5.92,2.398c-1.6,1.654-2.4,3.627-2.4,5.918
						c0,3.201,1.547,5.602,4.639,7.201c1.066,0.586,5.52,1.92,13.361,4c6.344,1.814,11.064,4.188,14.156,7.117
						c4.428,4.215,6.641,10.215,6.641,18c0,7.68-2.721,14.266-8.16,19.758c-5.492,5.441-12.078,8.16-19.758,8.16h-20.877
						c-2.613,0-4.881-0.961-6.801-2.881c-1.918-1.813-2.879-4.08-2.879-6.799v-0.162c0-2.664,0.961-4.957,2.879-6.877
						c1.92-1.92,4.188-2.881,6.801-2.881h21.678c2.346,0,4.32-0.799,5.918-2.398c1.602-1.602,2.4-3.572,2.4-5.92
						c0-2.932-1.521-5.146-4.559-6.639c-0.801-0.373-5.281-1.705-13.439-4c-6.348-1.865-11.066-4.322-14.16-7.361
						c-4.426-4.318-6.639-10.424-6.639-18.318c0-7.678,2.721-14.236,8.16-19.676c5.492-5.492,12.08-8.24,19.758-8.24h14.719
						c2.666,0,4.961,0.961,6.879,2.883c1.92,1.918,2.881,4.211,2.881,6.877v0.16c0,2.719-0.961,4.988-2.881,6.801
						c-1.918,1.918-4.213,2.879-6.879,2.879H1153.515z"/>
				</g>
			</g>
		</g>
	</g>
	<path fill="#FFC331" d="M152.04,147.17c-0.49,0.084-0.994,0.146-1.52,0.168c-2.756,0.086-4.769-0.66-6.529-2.42l-9.97-9.967
		l-12.596-12.598l-40.408-40.41c-3.852-3.85-8.221-6.016-12.994-6.439c-2.5-0.223-5.016,0.035-7.445,0.76
		c-3.635,1.063-6.879,2.998-9.635,5.756c-4.299,4.297-6.574,9.467-6.588,14.949c-0.068,5.572,2.188,10.801,6.512,15.125
		l62.363,62.367c2.043,2.072,2.982,4.27,2.953,6.914l0.004,0.234c0.059,2.736-0.852,4.889-2.945,6.982
		c-1.996,1.998-4.271,2.984-7.074,3.1c-2.756,0.086-4.77-0.662-6.531-2.422l-62.971-62.973c-5.846-5.844-13.121-7.861-20.439-5.68
		c-3.639,1.061-6.879,2.996-9.637,5.754c-4.299,4.299-6.576,9.469-6.588,14.951c-0.063,5.572,2.188,10.803,6.51,15.129
		l65.148,65.145c9.328,9.328,21.684,13.43,36.711,12.193c14.104-1.148,25.813-6.283,34.795-15.27
		c8.423-8.422,13.414-18.396,14.897-29.729c11.741-1.893,21.633-6.801,29.459-14.627c4.5-4.5,8.016-9.447,10.545-14.807
		C182.196,158.906,166.409,154.844,152.04,147.17z"/>
	<path fill="#366994" d="M202.889,137.385c0.115-14.451-4.967-26.984-15.143-37.277l-40.229-40.229
		c-0.273-0.271-0.521-0.549-0.77-0.838c-1.664-1.957-2.453-4.031-2.478-6.533c-0.029-2.779,0.952-5.072,3.095-7.209
		c2.146-2.148,4.32-3.08,7.137-3.02c2.844,0.027,5.188,1.061,7.369,3.242l67.934,67.934l13.582-13.578
		c1.258-1.021,2.195-1.99,3.227-3.301c6.636-8.455,5.908-20.557-1.693-28.158l-52.969-52.975C181.643,5.141,169.116-0.057,154.764,0
		c-14.511-0.057-27.067,5.117-37.321,15.371C107.32,25.492,102.15,37.803,102.082,51.92l-0.004,0.16
		c-0.002,0.189-0.006,0.379-0.006,0.57c-0.102,13.762,4.605,25.828,13.994,35.867c0.451,0.484,0.9,0.965,1.371,1.438l40.083,40.08
		c2.118,2.117,3.047,4.271,3.02,6.986l0.003,0.236c0.059,2.736-0.853,4.889-2.946,6.984c-1.623,1.619-3.434,2.563-5.557,2.928
		c14.369,7.674,30.156,11.736,46.027,12.188c3.146-6.666,4.766-13.971,4.82-21.865L202.889,137.385z"/>
	<path fill="#FFFFFF" d="M223.878,77.83c3.192-3.193,8.368-3.191,11.558,0c3.189,3.189,3.191,8.365-0.002,11.555
		c-3.188,3.193-8.367,3.193-11.556,0C220.688,86.195,220.685,81.02,223.878,77.83z"/>
</g>
</svg>
