<?xml version="1.0" encoding="utf-8"?>
<!-- Generator: Adobe Illustrator 16.0.0, SVG Export Plug-In . SVG Version: 6.00 Build 0)  -->
<!DOCTYPE svg PUBLIC "-//W3C//DTD SVG 1.1//EN" "http://www.w3.org/Graphics/SVG/1.1/DTD/svg11.dtd" [
	<!ENTITY ns_extend "http://ns.adobe.com/Extensibility/1.0/">
	<!ENTITY ns_ai "http://ns.adobe.com/AdobeIllustrator/10.0/">
	<!ENTITY ns_graphs "http://ns.adobe.com/Graphs/1.0/">
	<!ENTITY ns_vars "http://ns.adobe.com/Variables/1.0/">
	<!ENTITY ns_imrep "http://ns.adobe.com/ImageReplacement/1.0/">
	<!ENTITY ns_sfw "http://ns.adobe.com/SaveForWeb/1.0/">
	<!ENTITY ns_custom "http://ns.adobe.com/GenericCustomNamespace/1.0/">
	<!ENTITY ns_adobe_xpath "http://ns.adobe.com/XPath/1.0/">
]>
<svg version="1.1" id="Layer_1" xmlns:x="&ns_extend;" xmlns:i="&ns_ai;" xmlns:graph="&ns_graphs;"
	 xmlns="http://www.w3.org/2000/svg" xmlns:xlink="http://www.w3.org/1999/xlink" x="0px" y="0px" width="251.145px"
	 height="234.005px" viewBox="0 0 251.145 234.005" enable-background="new 0 0 251.145 234.005" xml:space="preserve">
<metadata>
	<sfw  xmlns="&ns_sfw;">
		<slices></slices>
		<sliceSourceBounds  width="251.144" height="234.005" y="-794.094" x="795.619" bottomLeftOrigin="true"></sliceSourceBounds>
	</sfw>
</metadata>
<g>
	<path fill="#FFC331" d="M152.04,147.17c-0.49,0.084-0.994,0.146-1.52,0.168c-2.756,0.086-4.769-0.66-6.529-2.42l-9.97-9.967
		l-12.596-12.598l-40.408-40.41c-3.852-3.85-8.221-6.016-12.994-6.439c-2.5-0.223-5.016,0.035-7.445,0.76
		c-3.635,1.063-6.879,2.998-9.635,5.756c-4.299,4.297-6.574,9.467-6.588,14.949c-0.068,5.572,2.188,10.801,6.512,15.125
		l62.363,62.367c2.043,2.072,2.982,4.27,2.953,6.914l0.004,0.234c0.059,2.736-0.852,4.889-2.945,6.982
		c-1.996,1.998-4.271,2.984-7.074,3.1c-2.756,0.086-4.77-0.662-6.531-2.422l-62.971-62.973c-5.846-5.844-13.121-7.861-20.439-5.68
		c-3.639,1.061-6.879,2.996-9.637,5.754c-4.299,4.299-6.576,9.469-6.588,14.951c-0.063,5.572,2.188,10.803,6.51,15.129
		l65.148,65.145c9.328,9.328,21.684,13.43,36.711,12.193c14.104-1.148,25.813-6.283,34.795-15.27
		c8.423-8.422,13.414-18.396,14.897-29.729c11.741-1.893,21.633-6.801,29.459-14.627c4.5-4.5,8.016-9.447,10.545-14.807
		C182.196,158.906,166.409,154.844,152.04,147.17z"/>
	<path fill="#366994" d="M202.889,137.385c0.115-14.451-4.967-26.984-15.143-37.277l-40.229-40.229
		c-0.273-0.271-0.521-0.549-0.77-0.838c-1.664-1.957-2.453-4.031-2.478-6.533c-0.029-2.779,0.952-5.072,3.095-7.209
		c2.146-2.148,4.32-3.08,7.137-3.02c2.844,0.027,5.188,1.061,7.369,3.242l67.934,67.934l13.582-13.578
		c1.258-1.021,2.195-1.99,3.227-3.301c6.636-8.455,5.908-20.557-1.693-28.158l-52.969-52.975C181.643,5.141,169.116-0.056,154.764,0
		c-14.511-0.057-27.067,5.117-37.321,15.371C107.32,25.492,102.15,37.803,102.082,51.92l-0.004,0.16
		c-0.002,0.189-0.006,0.379-0.006,0.57c-0.102,13.762,4.605,25.828,13.994,35.867c0.451,0.484,0.9,0.965,1.371,1.438l40.083,40.08
		c2.118,2.117,3.047,4.271,3.02,6.986l0.003,0.236c0.059,2.736-0.853,4.889-2.946,6.984c-1.623,1.619-3.434,2.563-5.557,2.928
		c14.369,7.674,30.156,11.736,46.027,12.188c3.146-6.666,4.766-13.971,4.82-21.865L202.889,137.385z"/>
	<path fill="#FFFFFF" d="M223.878,77.83c3.192-3.193,8.368-3.191,11.558,0c3.189,3.189,3.191,8.365-0.002,11.555
		c-3.188,3.193-8.367,3.193-11.556,0C220.688,86.195,220.685,81.02,223.878,77.83z"/>
</g>
</svg>
