<?xml version="1.0" encoding="utf-8"?>
<!-- Generator: Adobe Illustrator 16.0.0, SVG Export Plug-In . SVG Version: 6.00 Build 0)  -->
<!DOCTYPE svg PUBLIC "-//W3C//DTD SVG 1.1//EN" "http://www.w3.org/Graphics/SVG/1.1/DTD/svg11.dtd" [
	<!ENTITY ns_extend "http://ns.adobe.com/Extensibility/1.0/">
	<!ENTITY ns_ai "http://ns.adobe.com/AdobeIllustrator/10.0/">
	<!ENTITY ns_graphs "http://ns.adobe.com/Graphs/1.0/">
	<!ENTITY ns_vars "http://ns.adobe.com/Variables/1.0/">
	<!ENTITY ns_imrep "http://ns.adobe.com/ImageReplacement/1.0/">
	<!ENTITY ns_sfw "http://ns.adobe.com/SaveForWeb/1.0/">
	<!ENTITY ns_custom "http://ns.adobe.com/GenericCustomNamespace/1.0/">
	<!ENTITY ns_adobe_xpath "http://ns.adobe.com/XPath/1.0/">
]>
<svg version="1.1" id="Layer_1" xmlns:x="&ns_extend;" xmlns:i="&ns_ai;" xmlns:graph="&ns_graphs;"
	 xmlns="http://www.w3.org/2000/svg" xmlns:xlink="http://www.w3.org/1999/xlink" x="0px" y="0px" width="683.564px"
	 height="357.889px" viewBox="0 0 683.564 357.889" enable-background="new 0 0 683.564 357.889" xml:space="preserve">
<metadata>
	<sfw  xmlns="&ns_sfw;">
		<slices></slices>
		<sliceSourceBounds  width="683.564" height="357.889" y="-917.979" x="579.409" bottomLeftOrigin="true"></sliceSourceBounds>
	</sfw>
</metadata>
<g>
	<g>
		<g>
			<path fill="#FFC331" d="M14.83,328.775c0,3.953,1.392,7.322,4.176,10.105c2.784,2.787,6.154,4.178,10.109,4.178
				c3.954,0,7.324-1.391,10.107-4.178c2.785-2.783,4.178-6.152,4.178-10.105v-33.232c0-2.016,0.726-3.752,2.179-5.203
				c1.453-1.455,3.188-2.182,5.206-2.182h0.121c2.057,0,3.771,0.727,5.145,2.182c1.453,1.451,2.18,3.188,2.18,5.203v33.232
				c0,3.953,1.392,7.322,4.178,10.105c2.783,2.787,6.151,4.178,10.107,4.178c3.995,0,7.384-1.391,10.168-4.178
				c2.785-2.783,4.178-6.152,4.178-10.105v-33.232c0-2.016,0.725-3.752,2.179-5.203c1.37-1.455,3.086-2.182,5.145-2.182h0.12
				c2.019,0,3.754,0.727,5.206,2.182c1.413,1.451,2.119,3.188,2.119,5.203v33.232c0,8.029-2.846,14.889-8.534,20.578
				c-5.69,5.689-12.551,8.535-20.58,8.535c-9.605,0-16.827-3.186-21.671-9.563c-4.882,6.377-12.126,9.563-21.729,9.563
				c-8.03,0-14.891-2.846-20.58-8.535S0,336.805,0,328.775v-33.232c0-2.016,0.727-3.752,2.18-5.203
				c1.452-1.455,3.167-2.182,5.145-2.182h0.182c1.977,0,3.691,0.727,5.146,2.182c1.451,1.451,2.178,3.188,2.178,5.203V328.775z"/>
			<path fill="#FFC331" d="M178.441,308.498c0.485,1.008,0.728,2.035,0.728,3.086c0,0.848-0.161,1.695-0.484,2.543
				c-0.687,1.896-1.978,3.268-3.874,4.115c-5.65,2.543-13.074,5.893-22.275,10.049c-11.42,5.164-18.119,8.211-20.096,9.141
				c3.066,3.873,7.849,5.809,14.346,5.809c4.317,0,8.232-1.27,11.742-3.813c3.43-2.502,5.832-5.73,7.204-9.686
				c1.171-3.309,3.511-4.963,7.021-4.963c2.501,0,4.499,1.051,5.992,3.146c0.928,1.293,1.392,2.645,1.392,4.057
				c0,0.848-0.161,1.715-0.483,2.602c-2.381,6.902-6.559,12.471-12.529,16.709c-6.053,4.396-12.833,6.596-20.339,6.596
				c-9.604,0-17.816-3.408-24.635-10.229c-6.82-6.82-10.23-15.031-10.23-24.637c0-9.604,3.41-17.814,10.23-24.637
				c6.818-6.818,15.031-10.229,24.635-10.229c6.939,0,13.275,1.898,19.006,5.689C171.48,297.563,175.697,302.443,178.441,308.498z
				 M146.785,303.107c-5.569,0-10.311,1.959-14.225,5.873c-3.874,3.916-5.811,8.658-5.811,14.225v0.424l33.836-15.193
				C157.6,304.887,152.999,303.107,146.785,303.107z"/>
			<path fill="#FFC331" d="M198.539,263.342c1.977,0,3.691,0.707,5.145,2.119c1.453,1.451,2.18,3.188,2.18,5.205v23.545
				c4.559-4.033,11.238-6.053,20.034-6.053c9.604,0,17.816,3.41,24.636,10.229c6.819,6.822,10.23,15.033,10.23,24.637
				c0,9.605-3.411,17.816-10.23,24.637s-15.031,10.229-24.636,10.229s-17.795-3.389-24.574-10.17
				c-6.821-6.736-10.251-14.908-10.291-24.514v-52.539c0-2.018,0.727-3.754,2.18-5.205c1.452-1.412,3.167-2.119,5.145-2.119H198.539
				z M225.897,303.107c-5.568,0-10.31,1.959-14.225,5.873c-3.872,3.916-5.81,8.658-5.81,14.225c0,5.529,1.938,10.25,5.81,14.164
				c3.915,3.914,8.656,5.871,14.225,5.871c5.529,0,10.25-1.957,14.165-5.871c3.912-3.914,5.87-8.635,5.87-14.164
				c0-5.566-1.958-10.309-5.87-14.225C236.147,305.066,231.427,303.107,225.897,303.107z"/>
			<g>
				<g>
					<path fill="#366994" d="M289.817,302.99c-1.776,0-3.269,0.604-4.479,1.814c-1.211,1.252-1.816,2.744-1.816,4.479
						c0,2.422,1.17,4.238,3.512,5.447c0.806,0.445,4.176,1.453,10.108,3.027c4.802,1.373,8.372,3.168,10.712,5.387
						c3.351,3.189,5.024,7.729,5.024,13.621c0,5.809-2.058,10.793-6.173,14.949c-4.157,4.117-9.141,6.174-14.951,6.174h-15.798
						c-1.979,0-3.692-0.725-5.146-2.18c-1.453-1.371-2.18-3.086-2.18-5.143v-0.123c0-2.016,0.727-3.752,2.18-5.205
						s3.167-2.18,5.146-2.18h16.403c1.775,0,3.269-0.604,4.479-1.814c1.211-1.211,1.816-2.703,1.816-4.479
						c0-2.221-1.15-3.896-3.449-5.023c-0.605-0.285-3.996-1.293-10.17-3.027c-4.803-1.412-8.375-3.271-10.715-5.57
						c-3.35-3.268-5.023-7.889-5.023-13.861c0-5.811,2.059-10.773,6.175-14.889c4.155-4.156,9.14-6.236,14.95-6.236h11.138
						c2.017,0,3.753,0.727,5.206,2.182c1.452,1.451,2.179,3.188,2.179,5.203v0.121c0,2.059-0.727,3.775-2.179,5.146
						c-1.453,1.451-3.189,2.18-5.206,2.18H289.817z"/>
				</g>
			</g>
			<g>
				<g>
					<path fill="#366994" d="M355.613,288.158c9.604,0,17.815,3.41,24.636,10.229c6.819,6.822,10.229,15.033,10.229,24.637
						c0,9.605-3.41,17.816-10.229,24.637c-6.82,6.82-15.032,10.229-24.636,10.229c-9.604,0-17.816-3.408-24.635-10.229
						c-6.82-6.82-10.23-15.031-10.23-24.637c0-9.604,3.41-17.814,10.23-24.637C337.797,291.568,346.009,288.158,355.613,288.158z
						 M355.613,303.107c-5.569,0-10.311,1.959-14.225,5.873c-3.875,3.916-5.812,8.658-5.812,14.225
						c0,5.529,1.937,10.25,5.812,14.164c3.914,3.914,8.655,5.871,14.225,5.871c5.528,0,10.249-1.957,14.164-5.871
						c3.914-3.914,5.871-8.635,5.871-14.164c0-5.566-1.957-10.309-5.871-14.225C365.862,305.066,361.142,303.107,355.613,303.107z"
						/>
				</g>
			</g>
			<g>
				<g>
					<path fill="#366994" d="M444.35,289.793c3.431,1.09,5.146,3.43,5.146,7.021v0.305c0,2.459-0.99,4.416-2.967,5.871
						c-1.372,0.967-2.785,1.451-4.236,1.451c-0.768,0-1.555-0.121-2.361-0.363c-1.978-0.645-4.016-0.971-6.113-0.971
						c-5.569,0-10.312,1.959-14.225,5.873c-3.875,3.916-5.811,8.658-5.811,14.225c0,5.529,1.936,10.25,5.811,14.164
						c3.913,3.914,8.655,5.871,14.225,5.871c2.098,0,4.136-0.322,6.113-0.969c0.766-0.242,1.533-0.363,2.3-0.363
						c1.491,0,2.926,0.486,4.298,1.455c1.977,1.451,2.967,3.43,2.967,5.932c0,3.551-1.716,5.891-5.146,7.021
						c-3.389,1.049-6.899,1.572-10.531,1.572c-9.604,0-17.816-3.408-24.637-10.229c-6.818-6.82-10.229-15.031-10.229-24.637
						c0-9.604,3.41-17.814,10.229-24.637c6.82-6.818,15.032-10.229,24.637-10.229C437.45,288.158,440.961,288.705,444.35,289.793z"
						/>
				</g>
			</g>
			<g>
				<g>
					<path fill="#366994" d="M467.291,263.342c1.976,0,3.691,0.707,5.146,2.119c1.452,1.451,2.179,3.188,2.179,5.205v41.947h2.3
						c5.165,0,9.663-1.715,13.499-5.146c3.752-3.43,5.89-7.666,6.415-12.711c0.242-1.896,1.05-3.451,2.422-4.66
						c1.371-1.291,3.005-1.938,4.902-1.938h0.181c2.14,0,3.936,0.809,5.388,2.422c1.292,1.412,1.937,3.047,1.937,4.902
						c0,0.242-0.021,0.506-0.06,0.787c-0.969,10.129-4.843,17.715-11.622,22.758c3.55,2.182,6.819,5.873,9.807,11.078
						c3.106,5.367,4.661,11.16,4.661,17.371v3.09c0,2.057-0.728,3.771-2.179,5.143c-1.455,1.455-3.169,2.18-5.146,2.18h-0.182
						c-1.978,0-3.692-0.725-5.145-2.18c-1.453-1.371-2.179-3.086-2.179-5.143v-3.09c-0.042-5.484-1.999-10.188-5.872-14.104
						c-3.915-3.873-8.637-5.809-14.164-5.809h-4.963v23.002c0,2.057-0.727,3.771-2.179,5.143c-1.454,1.455-3.17,2.18-5.146,2.18
						h-0.184c-1.977,0-3.69-0.725-5.144-2.18c-1.452-1.371-2.179-3.086-2.179-5.143v-79.9c0-2.018,0.727-3.754,2.179-5.205
						c1.453-1.412,3.167-2.119,5.144-2.119H467.291z"/>
				</g>
			</g>
			<g>
				<g>
					<path fill="#366994" d="M589.44,308.498c0.484,1.008,0.726,2.035,0.726,3.086c0,0.848-0.162,1.695-0.483,2.543
						c-0.687,1.896-1.978,3.268-3.874,4.115c-5.65,2.543-13.075,5.893-22.275,10.049c-11.42,5.164-18.119,8.211-20.096,9.141
						c3.065,3.873,7.848,5.809,14.346,5.809c4.316,0,8.231-1.27,11.743-3.813c3.429-2.502,5.83-5.73,7.202-9.686
						c1.17-3.309,3.512-4.963,7.021-4.963c2.502,0,4.5,1.051,5.994,3.146c0.926,1.293,1.391,2.645,1.391,4.057
						c0,0.848-0.161,1.715-0.484,2.602c-2.381,6.902-6.557,12.471-12.529,16.709c-6.053,4.396-12.832,6.596-20.338,6.596
						c-9.604,0-17.816-3.408-24.635-10.229c-6.82-6.82-10.23-15.031-10.23-24.637c0-9.604,3.41-17.814,10.23-24.637
						c6.818-6.818,15.031-10.229,24.635-10.229c6.939,0,13.276,1.898,19.006,5.689C582.479,297.563,586.695,302.443,589.44,308.498z
						 M557.783,303.107c-5.568,0-10.311,1.959-14.225,5.873c-3.874,3.916-5.811,8.658-5.811,14.225v0.424l33.836-15.193
						C568.597,304.887,563.997,303.107,557.783,303.107z"/>
				</g>
			</g>
			<g>
				<g>
					<path fill="#366994" d="M609.535,263.342c1.977,0,3.692,0.707,5.146,2.119c1.452,1.451,2.179,3.188,2.179,5.205v17.492h9.08
						c1.977,0,3.691,0.727,5.146,2.182c1.452,1.451,2.177,3.188,2.177,5.203v0.121c0,2.059-0.725,3.775-2.177,5.146
						c-1.454,1.451-3.169,2.18-5.146,2.18h-9.08v35.891c0,1.172,0.402,2.162,1.211,2.967c0.807,0.809,1.816,1.211,3.026,1.211h4.843
						c1.977,0,3.691,0.727,5.146,2.18c1.452,1.453,2.177,3.189,2.177,5.205v0.123c0,2.057-0.725,3.771-2.177,5.143
						c-1.454,1.455-3.169,2.18-5.146,2.18h-4.843c-5.246,0-9.745-1.855-13.498-5.568c-3.714-3.752-5.568-8.232-5.568-13.439v-68.215
						c0-2.018,0.726-3.754,2.179-5.205c1.453-1.412,3.168-2.119,5.145-2.119H609.535z"/>
				</g>
			</g>
			<g>
				<g>
					<path fill="#366994" d="M660.503,302.99c-1.776,0-3.269,0.604-4.479,1.814c-1.211,1.252-1.816,2.744-1.816,4.479
						c0,2.422,1.17,4.238,3.51,5.447c0.809,0.445,4.178,1.453,10.11,3.027c4.801,1.373,8.372,3.168,10.713,5.387
						c3.349,3.189,5.024,7.729,5.024,13.621c0,5.809-2.059,10.793-6.174,14.949c-4.156,4.117-9.141,6.174-14.951,6.174h-15.798
						c-1.978,0-3.692-0.725-5.146-2.18c-1.453-1.371-2.178-3.086-2.178-5.143v-0.123c0-2.016,0.725-3.752,2.178-5.205
						s3.168-2.18,5.146-2.18h16.403c1.775,0,3.27-0.604,4.479-1.814c1.211-1.211,1.816-2.703,1.816-4.479
						c0-2.221-1.15-3.896-3.449-5.023c-0.607-0.285-3.996-1.293-10.17-3.027c-4.803-1.412-8.375-3.271-10.715-5.57
						c-3.35-3.268-5.023-7.889-5.023-13.861c0-5.811,2.059-10.773,6.175-14.889c4.155-4.156,9.14-6.236,14.951-6.236h11.137
						c2.019,0,3.753,0.727,5.205,2.182c1.453,1.451,2.179,3.188,2.179,5.203v0.121c0,2.059-0.726,3.775-2.179,5.146
						c-1.452,1.451-3.187,2.18-5.205,2.18H660.503z"/>
				</g>
			</g>
		</g>
	</g>
	<path fill="#FFC331" d="M368.249,147.17c-0.49,0.084-0.994,0.146-1.52,0.168c-2.756,0.086-4.769-0.66-6.529-2.42l-9.97-9.967
		l-12.596-12.598l-40.408-40.41c-3.852-3.85-8.221-6.016-12.994-6.439c-2.5-0.223-5.016,0.035-7.445,0.76
		c-3.635,1.063-6.879,2.998-9.635,5.756c-4.299,4.297-6.574,9.467-6.588,14.949c-0.068,5.572,2.188,10.801,6.512,15.125
		l62.363,62.367c2.043,2.072,2.982,4.27,2.953,6.914l0.004,0.234c0.059,2.736-0.852,4.889-2.945,6.982
		c-1.996,1.998-4.271,2.984-7.074,3.1c-2.756,0.086-4.77-0.662-6.531-2.422l-62.971-62.973c-5.846-5.844-13.121-7.861-20.439-5.68
		c-3.639,1.061-6.879,2.996-9.637,5.754c-4.299,4.299-6.576,9.469-6.588,14.951c-0.063,5.572,2.188,10.803,6.51,15.129
		l65.148,65.145c9.328,9.328,21.684,13.43,36.711,12.193c14.104-1.148,25.813-6.283,34.795-15.27
		c8.423-8.422,13.414-18.396,14.897-29.729c11.741-1.893,21.633-6.801,29.459-14.627c4.5-4.5,8.016-9.447,10.545-14.807
		C398.405,158.906,382.618,154.844,368.249,147.17z"/>
	<path fill="#366994" d="M419.099,137.385c0.115-14.451-4.967-26.984-15.143-37.277l-40.229-40.229
		c-0.273-0.271-0.521-0.549-0.77-0.838c-1.664-1.957-2.453-4.031-2.478-6.533c-0.029-2.779,0.952-5.072,3.095-7.209
		c2.146-2.148,4.32-3.08,7.137-3.02c2.844,0.027,5.188,1.061,7.369,3.242l67.934,67.934l13.582-13.578
		c1.258-1.021,2.195-1.99,3.227-3.301c6.636-8.455,5.908-20.557-1.693-28.158l-52.969-52.975C397.853,5.141,385.325-0.056,370.974,0
		c-14.511-0.057-27.067,5.117-37.321,15.371c-10.123,10.121-15.293,22.432-15.361,36.549l-0.004,0.16
		c-0.002,0.189-0.006,0.379-0.006,0.57c-0.102,13.762,4.605,25.828,13.994,35.867c0.451,0.484,0.9,0.965,1.371,1.438l40.083,40.08
		c2.118,2.117,3.047,4.271,3.02,6.986l0.003,0.236c0.059,2.736-0.853,4.889-2.946,6.984c-1.623,1.619-3.434,2.563-5.557,2.928
		c14.369,7.674,30.156,11.736,46.027,12.188c3.146-6.666,4.766-13.971,4.82-21.865L419.099,137.385z"/>
	<path fill="#FFFFFF" d="M440.088,77.83c3.192-3.193,8.368-3.191,11.558,0c3.189,3.189,3.191,8.365-0.002,11.555
		c-3.188,3.193-8.367,3.193-11.556,0C436.897,86.195,436.895,81.02,440.088,77.83z"/>
</g>
</svg>
